# xmcd
#
# Track frame offsets: 
#        150
#        21002
#        42705
#        44624
#        60371
#        73036
#        84566
#        86752
#        90645
#        91970
#        111555
#        122797
#        123129
#        141592
#        146490
#        147371
#        149312
#        153260
#        162355
#        171198
#        181340
#        200546
#        211081
#        219059
#        230867
#        246909
#        262536
#        274377
#        278963
#        286425
#        289977
#        291886
#        294499
#        307867
#        317542
#        318473
#        319150
#        326256
#        333351
#        340785
#        349627
#
# Disc length: 4797 seconds
#
# Revision: 0
# Processed by: cddbd v1.5.2PL0 Copyright (c) Steve Scherf et al.
# Submitted via: ExactAudioCopy v0.95b4
#
DISCID=7e12bb29
DTITLE=The Beatles  - AB  Road - Complete Purple Chick Set v1.1 Jan.03
DTITLE=Various Artist - D2  FLAC
DYEAR=1900
DGENRE=
TTITLE0=I've Got A Feeling 3.56
TTITLE1=I've Got A Feeling 3.57
TTITLE2=I've Got A Feeling 3.58
TTITLE3=I've Got A Feeling 3.59
TTITLE4=I've Got A Feeling 3.60A
TTITLE5=I've Got A Feeling 3.60B
TTITLE6=Unknown 3.61
TTITLE7=Going Up The Country 3.62
TTITLE8=On The Road Again 3.63
TTITLE9=One After 909 3.64
TTITLE10=Because I Know You Love Me So 3.65
TTITLE11=Roll Announcement
TTITLE12=One After 909 3.66
TTITLE13=I'll Wait Until Tomorrow 3.67
TTITLE14=A Pretty Girl Is Like A Melody 3.68
TTITLE15=Thinking Of Linking 3.69
TTITLE16=Won't You Please Say Goodbye 3.70
TTITLE17=Bring It Home To Me 3.71
TTITLE18=Hitch Hike 3.72
TTITLE19=You Can't Do That 3.73
TTITLE20=The Hippy Hippy Shake 3.74
TTITLE21=Two Of Us 3.75
TTITLE22=Two Of Us 3.76
TTITLE23=Two Of Us 3.77
TTITLE24=Two Of Us 3.78
TTITLE25=Two Of Us 3.79
TTITLE26=Two Of Us 3.80
TTITLE27=All Along The Watchtower 3.81
TTITLE28=Dialogue
TTITLE29=Sun King 3.82
TTITLE30=Improvisation 3.83
TTITLE31=Improvisation 3.84
TTITLE32=Short Fat Fanny 3.85
TTITLE33=Midnight Special 3.86
TTITLE34=When You're Drunk You Think Of Me 3.87
TTITLE35=What's The Use Of Getting Sober 3.88
TTITLE36=What You Wanna Make Eyes At Me For 3.89
TTITLE37=Money (That's What I Want) 3.90
TTITLE38=Give Me Some Truth 3.91
TTITLE39=All Things Must Pass 3.92
TTITLE40=All Things Must Pass 3.93
EXTD=
EXTT0=
EXTT1=
EXTT2=
EXTT3=
EXTT4=
EXTT5=
EXTT6=
EXTT7=
EXTT8=
EXTT9=
EXTT10=
EXTT11=
EXTT12=
EXTT13=
EXTT14=
EXTT15=
EXTT16=
EXTT17=
EXTT18=
EXTT19=
EXTT20=
EXTT21=
EXTT22=
EXTT23=
EXTT24=
EXTT25=
EXTT26=
EXTT27=
EXTT28=
EXTT29=
EXTT30=
EXTT31=
EXTT32=
EXTT33=
EXTT34=
EXTT35=
EXTT36=
EXTT37=
EXTT38=
EXTT39=
EXTT40=
PLAYORDER=
